/* XPM */
static char * alsa_tools_xpm[] = {
"32 32 199 2",
"  	c None",
". 	c #888A84",
"+ 	c #898A86",
"@ 	c #888A85",
"# 	c #CCCDCB",
"$ 	c #ECECEC",
"% 	c #EDEDED",
"& 	c #EBEBEB",
"* 	c #EAEAEA",
"= 	c #E9E9E9",
"- 	c #E8E8E8",
"; 	c #E7E7E7",
"> 	c #E6E6E6",
", 	c #E5E5E5",
"' 	c #E4E4E4",
") 	c #E3E3E3",
"! 	c #BEBFBD",
"~ 	c #8C8F8A",
"{ 	c #D4D4D4",
"] 	c #CFCFCF",
"^ 	c #D4D5D4",
"/ 	c #E0E0E0",
"( 	c #8A8C87",
"_ 	c #A2A4A0",
": 	c #AA531F",
"< 	c #DE1F01",
"[ 	c #9D6933",
"} 	c #EEEEEE",
"| 	c #333333",
"1 	c #A5A5A5",
"2 	c #A6A6A6",
"3 	c #9C9D99",
"4 	c #B7B8B5",
"5 	c #DEDFDE",
"6 	c #CB3207",
"7 	c #FF0000",
"8 	c #A0773D",
"9 	c #EFEFEF",
"0 	c #DDDDDD",
"a 	c #9B9B9B",
"b 	c #393939",
"c 	c #888888",
"d 	c #AEAFAD",
"e 	c #CECFCD",
"f 	c #B5C7B5",
"g 	c #CCF101",
"h 	c #D6F500",
"i 	c #9AC551",
"j 	c #D3D3D3",
"k 	c #919191",
"l 	c #4A4A4A",
"m 	c #6C6C6C",
"n 	c #C4C5C3",
"o 	c #9BC383",
"p 	c #FFFF00",
"q 	c #99CD63",
"r 	c #C9C9C9",
"s 	c #878787",
"t 	c #585857",
"u 	c #3C3C3B",
"v 	c #515150",
"w 	c #BEBEBD",
"x 	c #D0D1D0",
"y 	c #DBDBDB",
"z 	c #979A95",
"A 	c #87C669",
"B 	c #88FF00",
"C 	c #95C57E",
"D 	c #BFBFBF",
"E 	c #7D7D7D",
"F 	c #B3B4B2",
"G 	c #DFDFDD",
"H 	c #E7E7E5",
"I 	c #E7E8E5",
"J 	c #E8E8E5",
"K 	c #9E9E9C",
"L 	c #E2E2E2",
"M 	c #969793",
"N 	c #ABACA9",
"O 	c #5DC15C",
"P 	c #00FF00",
"Q 	c #98BD97",
"R 	c #9C9C9B",
"S 	c #3F4040",
"T 	c #404241",
"U 	c #414242",
"V 	c #6A6B6B",
"W 	c #D8D9D8",
"X 	c #ADAEAC",
"Y 	c #EEEFED",
"Z 	c #EFEFEE",
"` 	c #CDCECC",
" .	c #DEDEDE",
"..	c #A9AAA7",
"+.	c #C0C0BE",
"@.	c #43C342",
"#.	c #03FA03",
"$.	c #A8C1A7",
"%.	c #A4A5A4",
"&.	c #E8E8E6",
"*.	c #EEEEEC",
"=.	c #9FA19F",
"-.	c #9FA19D",
";.	c #BFC1BB",
">.	c #B8BBB5",
",.	c #C0C1C0",
"'.	c #BDBEBC",
").	c #D7D7D7",
"!.	c #24D424",
"~.	c #09ED09",
"{.	c #C1CCC1",
"].	c #BABBB8",
"^.	c #EEEEED",
"/.	c #C0C1BE",
"(.	c #A1A39E",
"_.	c #BABDB6",
":.	c #979A97",
"<.	c #8E8F8B",
"[.	c #B7C6B7",
"}.	c #08F007",
"|.	c #16DC16",
"1.	c #D5D5D5",
"2.	c #A5A7A3",
"3.	c #AAACA6",
"4.	c #9E9F9E",
"5.	c #ABAEA8",
"6.	c #878A86",
"7.	c #90938E",
"8.	c #A1A39F",
"9.	c #92BB91",
"0.	c #2AD02A",
"a.	c #E1E1E1",
"b.	c #D1D1D0",
"c.	c #AFB2AB",
"d.	c #B8BAB4",
"e.	c #A0A09E",
"f.	c #848581",
"g.	c #8D908C",
"h.	c #818480",
"i.	c #848783",
"j.	c #939590",
"k.	c #81827E",
"l.	c #A4A6A2",
"m.	c #B5B6B3",
"n.	c #77BD76",
"o.	c #3AC43A",
"p.	c #8D8E8C",
"q.	c #B8BBB3",
"r.	c #818280",
"s.	c #CACDCE",
"t.	c #677579",
"u.	c #69777B",
"v.	c #B6B7B5",
"w.	c #CACAC9",
"x.	c #8DB58C",
"y.	c #6EBE6E",
"z.	c #7BB17A",
"A.	c #8B8D89",
"B.	c #90928E",
"C.	c #8E908C",
"D.	c #939591",
"E.	c #91938F",
"F.	c #DADBDB",
"G.	c #AAB1B2",
"H.	c #A9B0B1",
"I.	c #DBDCDC",
"J.	c #CDCECD",
"K.	c #888984",
"L.	c #888985",
"M.	c #848681",
"N.	c #D9D9D9",
"O.	c #D8D8D8",
"P.	c #D6D6D6",
"Q.	c #D2D2D2",
"R.	c #D1D1D1",
"S.	c #D0D0D0",
"T.	c #CECECE",
"U.	c #CDCDCD",
"V.	c #CCCCCC",
"W.	c #CBCBCB",
"X.	c #CACACA",
"Y.	c #C8C8C8",
"Z.	c #C7C7C7",
"`.	c #868883",
" +	c #7A7B77",
".+	c #7D7E7A",
"++	c #757773",
"@+	c #787975",
"#+	c #6B6C69",
"$+	c #C8C9C8",
"%+	c #B7B8B7",
"&+	c #6A6B68",
"*+	c #6F706C",
"=+	c #7B7D79",
"-+	c #7A7B78",
";+	c #797A76",
">+	c #7B7C79",
",+	c #7C7E7A",
"'+	c #6E706B",
"                                                                ",
"                                                                ",
"                                                                ",
"                                                                ",
"                                                                ",
"          . + + + + + + + + + + + + + + + + + + + + @           ",
"          # $ $ % % % % $ $ & * * = - - ; > , , ' ) !           ",
"        ~ * $ { ] ] ^ % % $ $ & * = = - ; > > , ' ) / (         ",
"        _ $ % : < < [ } % ; | | | 1 = - / | | | 2 ' ) 3         ",
"        4 $ 5 6 7 7 8 9 } 0 | | | a = - - b | | c ' ) d         ",
"        e $ f g h h i } } j | | | k = - - l | | m ' ) n         ",
"      @ ' $ o p p p q } % r | | | s = - , t u u v w x y @       ",
"      z * & A B B B C % % D | | | E = - F G H H I J K L M       ",
"      N * & O P P P Q $ / R S T U V W - X Y Z Z Z Y `  ...      ",
"      +.= * @.P P #.$.$ %.H &.*.*.*.=.- -.;.;.;.;.;.>.,.'.      ",
"    . ).= 0 !.P P ~.{.& ].^.^.^.^.^./.' (._._._._._._.:.^ .     ",
"    <.; - [.}.P P |.1.* 2._._._._._.3.4.5._._._._._._.6./ 7.    ",
"    8.; - 9.P P P 0.a.b.c._._._._._.d.e.f.g.h.h.h.i.j.k./ l.    ",
"    m.> ; n.P P P o.= p.q._._._._._._.r., s.t.t.t.u./ a./ v.    ",
"    w.> > x.y.y.y.z.- D A.B.g.g.g.C.D.E., F.G.H.H.H.I.a./ J.    ",
"  K.) , , > > > ; ; ; ; ; ; ; > > > , , ' ' ) ) L a.a./ / , @   ",
"  @ * 9 } } } } } } } % % % % % $ $ $ $ $ & & & * * = = = ' L.  ",
"  M.N.N.N.O.).P.1.1.{ j Q.R.R.S.] T.T.U.V.W.X.X.r Y.Z.Z.Z.Z.`.  ",
"   +N.N.O.).).P.1.{ { j Q.R.S.S.] T.U.V.V.W.X.r Y.Y.Z.Z.Z.Z..+  ",
"  ++N.N.O.).P.P.1.{ j Q.Q.R.S.] T.T.U.V.W.X.X.r Y.Z.Z.Z.Z.Z.@+  ",
"  #+$+O.O.).P.1.{ { j Q.R.S.S.] T.U.V.V.W.X.r r Y.Z.Z.Z.Z.%+&+  ",
"    *+.+=+-+-+-+-+-+-+-+-+-+-+-+-+-+-+-+-+;+;+;+;+;+>+>+,+'+    ",
"                                                                ",
"                                                                ",
"                                                                ",
"                                                                ",
"                                                                "};
