/* XPM */
static char * tyrant_xpm[] = {
"132 132 36 1",
" 	c None",
".	c #40221F",
"+	c #442521",
"@	c #572F2A",
"#	c #383C42",
"$	c #3D3D3D",
"%	c #41454C",
"&	c #4D4A4A",
"*	c #474D54",
"=	c #484D54",
"-	c #584C48",
";	c #4B5158",
">	c #4D525A",
",	c #5A5548",
"'	c #545A62",
")	c #8D4C44",
"!	c #5A6167",
"~	c #5D636D",
"{	c #5D646D",
"]	c #70615C",
"^	c #666666",
"/	c #666C74",
"(	c #656D74",
"_	c #707174",
":	c #7C7663",
"<	c #737985",
"[	c #77818B",
"}	c #7F8A92",
"|	c #8B96A2",
"1	c #9C9A8C",
"2	c #9A9C9F",
"3	c #A9A18A",
"4	c #BABABA",
"5	c #C8C8C8",
"6	c #E1E1E1",
"7	c #000000",
"                                                                     7                                                              ",
"                                                                    7=7                                                             ",
"                                                                   72==7                                                            ",
"                                                                   7_2==7                                                           ",
"                                                                  722___=7                                                          ",
"                                                                  72__}}==7                                                         ",
"                                                                 7222_}}}==7                                                        ",
"                                                                 722_2}~}}~~7                                                       ",
"                                                                 7222_~}~}}~~77                                                     ",
"                                                                 72_22~_}~}}};;7                                                    ",
"                                                                 722_~~~~}~};;;;77                                                  ",
"                                                                 72_~~~~~~}~;;;~~~77                                                ",
"                                                                 722~~~~~;~;;;}}}}~~77                                              ",
"                                                                 72~~~~~;~;;;~;}~}}}~~7    7                                        ",
"                                                                 7~~~~~;~;;;;;~~~~}~}}~77 727                                       ",
"                                                                 7~~~~~~;;;;;~;~~~~~~~;;;72_277                                     ",
"                                                                 77~~~~;~;;;~;~~~~~~~;;;;22__2~7                                    ",
"                                                                   777~~;;;~;~~~~~~~;~;;22_22_~~7                                   ",
"                                                                      777;;;~~~~~~~;~;;;222_2}}~~77                                 ",
"                                                                         777~~~~~~;~;;;222___~}}~~;77                               ",
"                                                                         7%%77~~~~~;;;;22_2_~~~}~;;;;7777                           ",
"                                                                        7%%%%%77~~;~;;222__~~~~~;;;;~;~~~7                          ",
"                                                                       7%%%;%%%%77~;;;22____~~;~;;;~;~~~~~7                         ",
"                                                                       7%%;;;;%%%%77;;;~2<_~~;~;;;~;~~~~~~27                        ",
"                                                                      7%%%%;;%'%%%%%77~~~~~~~~;;;~;~~~~~~2227                       ",
"                                                                     7%%%%;;;=%'%%%%%%77~~~~~;;;;;~~~~~~222_~77                     ",
"                                                                     7;%%%%=;==%~%'%%%%%7~~~~~;;;~;~~~~~22____~77                   ",
"                                                                    7;%;%=%%;;~=~~%'%%%%%77~~;;;~;~~~~~22_2~_~~~~777                ",
"                                                                   7;;;%;%=%=;=~=~}}%''%%%%777;;;~;~~~22_2~_~~%~~~~~777             ",
"                                                                   7;;;;;;%==;~=~~~}~~}'%%%%%%7777~~~~222~_'%%~~~~~}~~~7            ",
"                                                                  7>%%%%%%;;===~=~}}~;}}~'%'%%%%%%777~~~_~'%%~~~~~~~}}~7            ",
"                                                                 7~%~%~~~>=>'===~~~}};~}~~}~;;;;%%~~~~~~~'%%~~~~~~^$~}}7            ",
"                                                                7%%%%%%~~~~>>==~=~}~};;~~;~~;}~~~~~~~~~~~%%~~~~~~~#5$}}~7           ",
"                                                               7%%%%%%%%''~~>=;=~~~}~[;}};}};;}~~~~~~~~~'%~~~;;;~~~###$~7           ",
"                                                              7%%%'%'%%%%%;;;;=~=~~~}~;~~;;;;;;~;~;~;~~~%%~~;;&&&&~~~#5$~7          ",
"                                                7777777777   7%%%'%'''%%%%%;;~==~~~~~~;~~;;;;%;%;%;%;;~~%%~;;&&7711&~~#~~7          ",
"                                                 77333333377 7%%'%'''}'}'%%%%'~==~~~~~;;;;%;%%%%%%%%%;%~%~~;&&777671&~~~~7          ",
"                                                   7::3333337:77>'''}}}}}''%%%%~~=~=~=;;;%%%%%%%7777%%;%~~~;&17767771&~~~~7         ",
"                                                    7,,:33333:3:77'}~}~}~}''%%%%~~===~;;%%777777    7777=~~;&467776774&~~~7         ",
"                                                     77,:3:333:3::77~~~~}~}''%~%%%~=~=;%%7              77~;&47766776611&~7         ",
"                                                       7,:3:3:3:3::,77~~~}~~'>~~~%%~==;;%7                777&47667677771~7         ",
"                                                        7,:::3:3:3::,,7~;;~;~;~~~~~===;%%7                   7~46677777447          ",
"                                                         7,:::3:3:3::,,7=;;;;~~~~~=~==;,7                     744&7667667           ",
"                                                          7,,:,::3:3::,,~=;;~;~~~~~~~;,,7                      7&466776             ",
"                                                          7,,,:,::3::::~~=;;;~~~##~~~;:,7          7           7~44&66              ",
"                                                           7,,,:,:::::,~==;;~;~~~~####;:,7        7@7     7     7~~4&7              ",
"                                                            7,,,:,:,:,~==;;;;~~~~~~~~~######7    7))@7   7@7     77~77              ",
"                                                             7,,,:,:,~~==;;;~;|~|~|~~~~)~)~))7777)))@7  7@)7       7                ",
"                                                              7,,,,,~~==;;;~;~~|||||||~|@%))))))77))@@77@)@)7                       ",
"                                                               7,,,~~===;;~;~~~~*~*~*~~@%@%@)))))@77@@@@)))@7                       ",
"                                                                7,~~===;;;;~~~~*~*~*~*@%@%@)@)@)))))77@@@)))@7                      ",
"                                                                 7~===;;;;~;~~*%*%*%*%~%~@%@)@)@)@))))77@))@)7                      ",
"                                                                 7==;;;;;~;~~%%%%%%%%%**@%@@@@@@@)@)@)))))))@+7                     ",
"                                                                  7;;;~;~;~###########%%%...........@@@@)))))@+7                    ",
"                                                                  7~;~;~;~~~~~~~~~~~~########7777.......@)))@)+7                    ",
"                                                                   7~;~;~;~~~~~{}{~~~{;{;;::,7   7777777)@)))@@+7                   ",
"                                                                   7;;;;;~;~~~~}}}~~{{{;;:;:,7   7))))))@)))))@+7                   ",
"                                                                    7>%;;;~;~~~~}{{~{{;{;;:,,7   7)))))@)@)))@++7                   ",
"                                                                    7%>%;;;~;~~~}}}{{{{;;:,,,7   7))))))@)))))@+7                   ",
"                                                                    7>%>%;;;~;~~~}{{{{;{;;,:,7    7))))@)@)))@+7                    ",
"                                                                  77%%%%>%;;;~;~~{}{{;{;;::,,7    7)))@)@)))))@7                    ",
"                                                                77%%%%%%%>%;;;~~~~{{{{;{;;,:,7    7))))@)@)))@+7                    ",
"                          77                                  77==;%;%%%%%>%;;;~~{{{{;{;;::,,7    7)))@@@)))))+7                    ",
"                          7%777                           7777%%;;;=%;%%%%%>%;~~{{{{{{;;:;,:,7    7))))@)@)))@@7                    ",
"                          7%%%%777                 7777777%%%%%;;;;=;%;%%%%%>%;{{777777;;::,7     7))@@@77))))+7                    ",
"                           7%%%%%%777       7777777%%%%%%%%;;;;;;';;=;%;%%%%%>%{7((((((7:,,:7     7)))@7 7)))@+7                    ",
"                           7%%%;%;%;%7777777%%%%%%%%;;;;;;;;;}}'}'';==;%;%%%%%;{7((}(}((7:,7      7))@@7 7))@)7                     ",
"                           7%%;%;;;;%%%%%%%%%%%;;;;;;;}'';;=;{'}'}'='==;%;%%%%%{7!((}(}((7,7      7)))@7 7)))+7                     ",
"                            7;%;;;;;;;;;;;;;;;;;;{''}'}};';;;;}'}}{'='==;%;%%%;{7(!}(}(}((7       7))@@7 7))@+7                     ",
"                            7%;;;;;~'''}'}''';'=;{{''}'}};';=''}'}}''===;~%>%;%7(!((}}}}((;7      7)))@7 7)@)+7                     ",
"                          7 7;;;==~={{}'}'}''';'=;{{''}'}};';=''}}}}''==={;%%%;7!((}}}}}}(;;7     7))@@7 7))@+7                     ",
"                         77 7=;;;{=={={}'}'}'''''=;7{''}'}';';=''}}}'='=={{;%;{7(!((}}}}(}(;;7    7)@)@7 7)@@+7                     ",
"                        7(7  7;;{%{=={={}}}'}''''{7(7{''}'}';';=''}}}'='==;{;{;7(!(!(}}}}((;;7    7))@77 7))@+7                     ",
"                       7((7  7;{;{%~=='}{}}}'}''{7}((7{''}'}';'='''}}''='={;{;;7!!!(}}}}}}(;;7    7)@)7  7)@@7                      ",
"                      7((((7 7~;~~~%~%='}'}}}''=7(((}(7{'''}'''==''{'}''==;{{;7;((!((}}}}(};!;7   7@)77 77))77                      ",
"                     7(}(}(7  7~~~~~%{{%%}'}'}=7(((}}(}7{'''|''{=''''''''={;;;7;!(!(!(}}}}(;;;7   7)@7  7)@@7                       ",
"                   77(}}}}}7 7~~~~;{;{;{%%%'%%7}((}(}}(}7{'''''{=='========{;;7;(!(!(!(}}}};!;77  7@77  7))77                       ",
"                  7((}}}}}(77~~~~;{;;;;;;%'%%%7((}(}}}}((7{''''{{==={;{;{;=;;;7;!(!!!(((}}(};!77 7@)7  77)@7                        ",
"                  7(}}}}}}}7~~~~;{;;;;;;;%%%%7(!((}}}}}}((7{%;%;={;{;{;{;{;=;;7;(!!!!!(}}}}(;;;7 7)@7  7)))7                        ",
"                  7}}}}}}}(7~~~;{;;;%;%;%%%%%7(!(}}}}}}(!((7%%;%;;;;{;{{{;{==;7;(!;!!(!(}}(};!;777@77  7)@77                        ",
"                 7}}}}}}}(}7~~;{;;;%;%;%;%%%7(!(((}}}}(!(!!7%%%;%;;;;{{{{{;{=;;7;(!;!!(((}}(;;!77@@7  77))7                         ",
"                7}(}}}}}}}(7~//;;;%;%%%%%%%%7((!(}(}}(}(!!(7%%%%;%;;{;{{{{{;==;7;(!;;!!((}(};;;;7@77  7)@@7                         ",
"                7(}}}}}}}(}(7/;{;%;%%%%%%%%%7(!((}(}(}(!!(!7%%%%%;%;;{;{;{;{;;%7;!!;!!(!((}((;!;777  77@)7                          ",
"                7}}}}}}}(}(!7;{;%;%%%%777%%%7!(!!(}(}((!(!(7%%%%%%;%;;{;{;{;{;%7;(!!!;!(((((;;;;77   7@)7                           ",
"                7(}}}}}(}(((7{;%%%%%%7   77%7(!!(!(}((!!!((7%%%%%%%;%;;;;{;{;;%7;;(!;!(!(((((;!;;7  77)@7                           ",
"               7(}}}}}(}(!(!7;%;%%%%7      77!(!!!((((!!!!(7%%%%%%%%%%%;%;{;;%%%7;((!;!(!(((;;;!;7  7@+77                           ",
"               7((}}}}}(((!(7%;%%%77        7(!!!(!((!!=!(!77777777%%%%%;%;;%%%%7;(!;;;!(!(((;;;;7 77+77                            ",
"               7(}}}}}(((!(!7%%%%7          7!(!!=!((!!!=!(7       777%%%%%%%%%%7;((!;!!!(!(;(;!;;77+77                             ",
"               7!(}}}(}(!!!(7%%77           7(!!;!;!(!!;!!!7          7777%%%%%%7;(!!;;;!!(!(;;;;;7777                              ",
"              7!!}(}(}((!!(!7%7             7!(!!;!!(!=!;!(7              77%%%%7;((!!;!;;!(((;!;;777                               ",
"              7(!(}(}((;!!!(77              7(!!;!;!(!=!;!!(7               777777;!(;!!;!!!(;;;!;7                                 ",
"              7!!(((((!!;!(7                7!(!!;;!(!!;!!((7                    7;(!!!;!;!!!(;;;;7                                 ",
"             7!(!((((!;;!!!7                7(!!=;!!(!!!;!!(7                    7;((!=;;!!!(;(;;;7                                 ",
"             7(!!!((!!!;;!(7                7!(!!;;!(!!;!!(!7                    7;(!!!;;;=!!(;;!;;7                                ",
"             7!!!((!!;!;!!!7                 7!!;;!!(!;!;!!(7                     7;(!=!;!!!!!(;;;;7                                ",
"             7(!(((!;!;;;!(7                 7(!;!;!(!!;!!!!7                     7;((!;!;;!!(;;!;;7                                ",
"             7!;(((!;;;;!(7                  7!!;!;!(!;;!;!(7                     7;(!!!;;!!!!(;;;;7                                ",
"            7(;!((!!!;!;!!7                  7(!!;!!(!!;;!!!7                      7;(!=!;;!!(!(;;;7                                ",
"            7(!;((!!;;;!!(7                  7!!;!;!(!;!;!!(7                      7;!!!;!;!!!(;;!;7                                ",
"            7!;((!!;!;!;!!7                  7(!!;!!(!!;!;!!7                      7;(!!;!;;!!!(;;;7                                ",
"            7;!((!;!;!;!!(7                  7!!!!;!(!;!;!!!7                      7;!!;!;;!=!!;;!;7                                ",
"            7!;((!!;;;!;!!7                  7(!;!;!(!!;!;!!7                       7;!!;!;;!=!(;;;;7                               ",
"            7;!((!;;;!;!!7                   7!!!;;!(!;;;!!(7                       7;(!!;!!;!=!;;;;7                               ",
"            7!;((!;;!;!!(7                   7(!;!;!(!!;!;!!7                       7;!!!=!;!!!!(;!;7                               ",
"            7;((!!;!;!!(!7                   7!!!;!!(!!;!!!(7                       7;(!=!;!;;!!;;;;7                               ",
"            7!((!;;;!!(!7                    7(!!;;!(!=!;!!!7                       7;!(!!;;;!!!(;!;7                               ",
"            7!((!;!!!(!(7                     7(!;!!(!!;;!!7                        7;(!!;;;!;!!!;;;7                               ",
"            7(((!!!!!!(!7                     7!!!;!(!;!;!(7                         7;(!!;;!!!!](!;7                               ",
"            7](]!]!](](]7                     7(!;!!(!!;!!!7                         7;](!!!!]!](];7                                ",
"            7]](]!](](](7                     7]!]!!(!;!;!(7                          7(](]!]!](]];7                                ",
"            7]]]]]]](]]7                      7(]!]!]!!!](]7                          7](](](]]]]];7                                ",
"            7]]]]]]]]]]7                      7]]]!](]!](](7                           7]]]]]]]]]];7                                ",
"            7]]]]]]]]]]7                      7]]]]!]!]!](]7                           7]]]]]]]]]];7                                ",
"             7-]-]-]-]7                        7]]]]]]]]]]]7                            7]]]]]]]]-;7                                ",
"             7]-]-]-]-7                        7]]]]]]]]]]7                              7]]]]]]-]7                                 ",
"             7---]---7                         7-]-]]]]]-]7                              7]-]]]-]-7                                 ",
"             7-------7                          7-]-]-]-]7                                7]-]-]--7                                 ",
"              7-----7                           7--]-]-]-7                                7-]-]-]-7                                 ",
"              7-----7                           7---]-]--7                                 7-]-]--7                                 ",
"              7----7                             7---]--7                                   7-]---7                                 ",
"              7----7                             7------7                                   7----7                                  ",
"               7--7                              7-----7                                     7---7                                  ",
"               7--7                               7----7                                     7---7                                  ",
"               7-7                                7---7                                       7--7                                  ",
"               7-7                                7---7                                       7--7                                  ",
"               77                                  7--7                                        7-7                                  ",
"                7                                  7-7                                          7                                   ",
"                                                    77                                          7                                   ",
"                                                    7                                                                               ",
"                                                    7                                                                               ",
"                                                                                                                                    ",
"                                                                                                                                    "};
